<svg xmlns="http://www.w3.org/2000/svg" viewBox="0 0 32 32" width="64" height="64">
  <title>University CRM - Book Gear</title>
  <g fill="none" stroke="#004a99" stroke-width="2.5" stroke-linecap="round" stroke-linejoin="round">
    <path d="M4,24 C4,24 9,23 16,23 C23,23 28,24 28,24 L28,8 C28,8 23,7 16,7 C9,7 4,8 4,8 Z" fill="#e6f0ff"/>
    <line x1="16" y1="7" x2="16" y2="23" stroke-width="2"/>
    
    <path d="M16,3 L16,7" stroke="#f5a623" stroke-width="3"/>
    <circle cx="16" cy="11" r="4" stroke="#f5a623" stroke-width="2.5" fill="#fff"/>
    <path d="M16,7 L16,5" stroke="#f5a623" stroke-width="3"/>
    <path d="M19.5,9 L21.5,8" stroke="#f5a623" stroke-width="3"/>
    <path d="M19.5,13 L21.5,14" stroke="#f5a623" stroke-width="3"/>
    <path d="M12.5,9 L10.5,8" stroke="#f5a623" stroke-width="3"/>
    <path d="M12.5,13 L10.5,14" stroke="#f5a623" stroke-width="3"/>
  </g>
</svg>